<svg xmlns="http://www.w3.org/2000/svg" viewBox="0 0 420.93 608.47" style="padding:0;width:60px;height:60px"><path fill="currentColor" d="M387.33 12.61v128.27c0 119-73.17 179.87-174.57 179.87-96.79 0-179.17-58.61-179.17-179.87V12.61h75.47v128.27c0 72.4 41.48 110.91 104.28 110.91s98.52-41.95 98.52-110.91V12.61zM277.03 543.55l48.43 52.28v.01h15.27v-75.61h-15.27v52.29l-48.43-52.29h-15.27v75.61h15.27v-52.3.01zM168.46 579.35v-13.64h28.43v-16.48h-28.43v-12.51h42.64v-16.49h-57.91v75.61h57.91v-16.49h-42.64zM390.35 520.21h14.43v75.66h-14.43zM404.78 382.18v75.54H16.15v-75.54zM102.94 519.86v31.47c0 29.19-18 44.13-42.83 44.13-23.75 0-44-14.38-44-44.13v-31.47h18.56v31.47c0 17.77 10.18 27.21 25.59 27.21s24.17-10.29 24.17-27.21v-31.47z"/></svg>