<svg version="1.1" viewBox="0 0 22 22" xmlns="http://www.w3.org/2000/svg" style="width:20px;height:20px"><path fill="currentColor" d="M21 14.5v2.4c0 .1 0 .2-.1.3-.1.1-.2.1-.3.1h-1.2V20c0 .5-.2 1-.6 1.4-.4.4-.9.6-1.4.6H2c-.6 0-1-.2-1.4-.6C.2 21 0 20.6 0 20V2C0 1.5.2 1 .6.6 1 .2 1.5 0 2 0h15.3c.6 0 1 .2 1.4.6.5.4.7.8.7 1.4v2.8h1.2c.1 0 .2 0 .3.1.1 0 .1.1.1.2v2.4c0 .1 0 .2-.1.3-.1.1-.2.1-.3.1h-1.2v1.6h1.2c.1 0 .2 0 .3.1.1 0 .1.1.1.2v2.4c0 .1 0 .2-.1.3-.1.1-.2.1-.3.1h-1.2v1.6h1.2c.1 0 .2 0 .3.1.1 0 .1.1.1.2zm-5.8.7c0-.5 0-.9-.1-1.3 0-.4-.1-.8-.3-1.2-.1-.4-.3-.8-.5-1.1-.2-.3-.5-.5-.8-.7-.3-.2-.7-.3-1.1-.3-.1 0-.2.1-.4.3-.2.1-.4.2-.5.3-.1.1-.3.1-.5.2s-.4.2-.6.2c-.2 0-.4.1-.6.1-.2 0-.4 0-.6-.1-.2 0-.4-.1-.6-.2-.2-.1-.4-.2-.5-.2-.1-.1-.3-.2-.5-.3-.2-.1-.4-.2-.4-.3-.4 0-.8.1-1.1.3-.3.2-.6.4-.8.7-.2.3-.4.6-.5 1.1l-.3 1.2c0 .4-.1.8-.1 1.3 0 .6.2 1.1.5 1.5.4.4.8.6 1.3.6h7.3c.5 0 .9-.2 1.3-.6.2-.4.4-.9.4-1.5zM13 7.9c0-.9-.3-1.6-1-2.3-.6-.6-1.4-.9-2.3-.9-.9 0-1.7.3-2.3.9-.6.6-1 1.4-1 2.3 0 .9.3 1.6 1 2.2.6.6 1.4.9 2.3.9.9 0 1.7-.3 2.3-.9.7-.6 1-1.3 1-2.2z"/></svg>