<svg xmlns="http://www.w3.org/2000/svg" viewBox="0 0 24 24"><path fill="#ffffff" d="M16.5818427,13.9850787 C16.3330256,13.8611939 15.1097588,13.2621562 14.8816646,13.1794713 C14.6535704,13.096834 14.4876924,13.0555391 14.3218144,13.3033561 C14.1559364,13.5512682 13.6791206,14.1090585 13.5339177,14.2743808 C13.3888102,14.4395604 13.243655,14.4603267 12.9948857,14.3363469 C12.746021,14.2123671 11.9442772,13.9509118 10.9938926,13.1071933 C10.2541741,12.4506089 9.75482111,11.6397268 9.60966591,11.3917672 C9.46455846,11.1439026 9.59424317,11.009896 9.71881881,10.8863914 C9.8307411,10.7754321 9.96763583,10.5971369 10.0920205,10.4525809 C10.2164529,10.3079774 10.2578985,10.2046213 10.3408375,10.0394892 C10.4237765,9.87416691 10.3823309,9.72956341 10.3201147,9.60563113 C10.2578985,9.48169884 9.76026443,8.2627621 9.55294079,7.76689041 C9.35096497,7.28413424 9.14583775,7.34952183 8.99309055,7.34182358 C8.84812634,7.33464805 8.68205733,7.33312741 8.51622706,7.33312741 C8.35034905,7.33312741 8.08076146,7.39509356 7.852715,7.64295812 C7.62462079,7.89091773 6.98183154,8.49000297 6.98183154,9.70884467 C6.98183154,10.9277339 7.87343782,12.1051856 7.9978702,12.2704604 C8.12225484,12.4357826 9.75238595,14.9369528 12.2484347,16.0096228 C12.8420908,16.2647579 13.3055847,16.4171547 13.666897,16.5312029 C14.2629883,16.7197624 14.8054104,16.6931512 15.2340957,16.6293793 C15.7121529,16.5582893 16.7062273,16.0303416 16.9135987,15.4519275 C17.1209223,14.8734185 17.1209223,14.3776418 17.0587061,14.2743808 C16.9965377,14.1710722 16.8306597,14.1090585 16.5818427,13.9850787 M12.0418273,20.1543689 L12.0384849,20.1543689 C10.553318,20.1537986 9.09660913,19.7567211 7.82578489,19.0061895 L7.52358513,18.8276567 L4.39095445,19.6454767 L5.22707706,16.6058093 L5.03030581,16.2941729 C4.20177521,14.9826671 3.76420867,13.4669201 3.76482874,11.9104485 C3.76664384,7.36876745 7.47965658,3.67379863 12.0451219,3.67379863 C14.2558738,3.67455895 16.3340283,4.53253341 17.8967387,6.08952777 C19.4594013,7.64647461 20.3194936,9.71611524 20.3186824,11.9170538 C20.3168197,16.4591149 16.6038069,20.1543689 12.0418273,20.1543689 M19.0860564,4.90642115 C17.2059623,3.03313335 14.7056639,2.00104544 12.0417318,2 C6.55290747,2 2.08566067,6.44554797 2.08346424,11.9097832 C2.08274801,13.6565251 2.5412761,15.3614494 3.41273254,16.8644609 L2,22 L7.27896997,20.6218236 C8.73348238,21.4113692 10.37111,21.8275497 12.0377686,21.82812 L12.0418273,21.82812 L12.041875,21.82812 C17.5301263,21.82812 21.9978028,17.3820968 22,11.917719 C22.001002,9.26966439 20.9661505,6.77966142 19.0860564,4.90642115"/></svg>