<svg xmlns="http://www.w3.org/2000/svg" viewBox="0 0 24 24"><path fill="currentColor" d="M16.6661932,21 C17.5227273,21 18.2897727,20.7571023 19.0440341,20.3480114 C19.6193182,20.0284091 20.3352273,19.6193182 20.6036932,18.9928977 C20.7954545,18.5710227 21,17.6761364 21,17.2159091 C21,17.1264205 21,17.0369318 20.9616477,16.9474432 C20.8721591,16.6789773 20.2457386,16.3977273 19.9900568,16.2698864 C19.2613636,15.8607955 18.5198864,15.4644886 17.8039773,15.0426136 C17.4715909,14.8380682 17.0625,14.4545455 16.6661932,14.4545455 C15.8863636,14.4545455 14.7485795,16.7684659 14.0582386,16.7684659 C13.7130682,16.7684659 13.265625,16.4488636 12.9588068,16.2698864 C10.6321023,14.9786932 9.02130682,13.3678977 7.73011364,11.0411932 C7.55113636,10.734375 7.23153409,10.2869318 7.23153409,9.94176136 C7.23153409,9.25142045 9.54545455,8.11363636 9.54545455,7.33380682 C9.54545455,6.9375 9.16193182,6.52840909 8.95738636,6.19602273 C8.53551136,5.48011364 8.13920455,4.73863636 7.73011364,4.00994318 C7.60227273,3.75426136 7.32102273,3.12784091 7.05255682,3.03835227 C6.96306818,3 6.87357955,3 6.78409091,3 C6.32386364,3 5.42897727,3.20454545 5.00710227,3.39630682 C4.38068182,3.66477273 3.97159091,4.38068182 3.65198864,4.95596591 C3.24289773,5.71022727 3,6.47727273 3,7.33380682 C3,8.52272727 3.48579545,9.59659091 3.88210227,10.6832386 C4.16335227,11.4630682 4.50852273,12.2173295 4.94318182,12.9204545 C6.28551136,15.09375 8.90625,17.7144886 11.0795455,19.0568182 C11.7826705,19.4914773 12.5369318,19.8366477 13.3167614,20.1178977 C14.4034091,20.5142045 15.4772727,21 16.6661932,21 Z"/></svg>