<svg version="1.1" viewBox="0 0 22 22" xmlns="http://www.w3.org/2000/svg" style="width:20px;height:20px"><path fill="currentColor" d="M17.9 5.9l-3.6 3.6v10.1c0 .4-.1.7-.4 1-.3.3-.6.4-1 .4s-.7-.1-1-.4c-.3-.3-.4-.6-.4-1v-4.7h-.8v4.7c0 .4-.1.7-.4 1-.3.3-.6.4-1 .4s-.7-.1-1-.4c-.3-.3-.4-.6-.4-1V9.5L4.5 5.9c-.3-.3-.4-.5-.4-.9 0-.3.1-.6.3-.8.3-.2.6-.3.9-.3.3 0 .6.1.8.3L8.9 7h4.5l2.8-2.8c.2-.2.5-.3.8-.3.3 0 .6.1.8.3.2.2.3.5.3.8.2.4 0 .6-.2.9zm-4.8-4c.5.5.8 1.2.8 1.9a2.732 2.732 0 0 1-2.7 2.7c-.7 0-1.4-.2-2-.7-.5-.5-.8-1.2-.8-1.9a2.732 2.732 0 0 1 2.7-2.7c.7 0 1.5.2 2 .7z"/></svg>