<svg xmlns="http://www.w3.org/2000/svg" width="24px" height="24px" viewBox="0 0 24 24"><defs><path d="M5.55061905,16.8874143 L5.85219048,17.0661762 C7.11938095,17.8181286 8.57219048,18.2158429 10.0536667,18.2166048 L10.0569048,18.2166048 C14.606619,18.2166048 18.309619,14.5145095 18.3115718,9.96441429 C18.3122381,7.75931905 17.4545714,5.68589048 15.896,4.12617619 C14.3373333,2.56650952 12.2649524,1.70698571 10.06,1.70608095 C5.50666667,1.70608095 1.8037619,5.4077 1.80195172,9.9577 C1.80133333,11.5168905 2.23757143,13.035319 3.06395238,14.349319 L3.26042857,14.6614619 L2.42633333,17.7065571 L5.55061905,16.8874143 Z M0.0417619048,20.0653667 L1.4507619,14.9206524 C0.581714286,13.4149857 0.12452381,11.7068905 0.125142857,9.95703333 C0.127333333,4.48284286 4.58242857,0.0291761905 10.0569048,0.0291761905 C12.7135238,0.0303190476 15.2070476,1.06431905 17.0822857,2.94084286 C18.9572857,4.81750952 19.9894286,7.31203333 19.9885244,9.96508095 C19.9861905,15.4389857 15.5304762,19.8934619 10.0569048,19.8934619 C10.0565238,19.8934619 10.0571429,19.8934619 10.0569048,19.8934619 L10.052619,19.8934619 C8.39057143,19.8927952 6.75728571,19.4758905 5.30671429,18.6848429 L0.0417619048,20.0653667 Z" id="path-1"/><filter x="-7.5%" y="-7.5%" width="115.0%" height="115.0%" filterUnits="objectBoundingBox" id="filter-2"><feOffset dx="0" dy="0" in="SourceAlpha" result="shadowOffsetOuter1"/><feGaussianBlur stdDeviation="0.5" in="shadowOffsetOuter1" result="shadowBlurOuter1"/><feColorMatrix values="0 0 0 0 0   0 0 0 0 0   0 0 0 0 0  0 0 0 0.06 0" type="matrix" in="shadowBlurOuter1" result="shadowMatrixOuter1"/><feOffset dx="0" dy="0" in="SourceAlpha" result="shadowOffsetOuter2"/><feGaussianBlur stdDeviation="0.5" in="shadowOffsetOuter2" result="shadowBlurOuter2"/><feColorMatrix values="0 0 0 0 0   0 0 0 0 0   0 0 0 0 0  0 0 0 0.15 0" type="matrix" in="shadowBlurOuter2" result="shadowMatrixOuter2"/><feMerge><feMergeNode in="shadowMatrixOuter1"/><feMergeNode in="shadowMatrixOuter2"/></feMerge></filter><linearGradient x1="49.9999303%" y1="100.000083%" x2="49.9999303%" y2="9.08186729e-05%" id="linearGradient-3"><stop stop-color="#1FAF38" offset="0%"/><stop stop-color="#60D669" offset="100%"/></linearGradient><linearGradient x1="50.0000187%" y1="99.9999404%" x2="50.0000187%" y2="-0.000105428273%" id="linearGradient-4"><stop stop-color="#F9F9F9" offset="0%"/><stop stop-color="#FFFFFF" offset="100%"/></linearGradient><path d="M0.125142857,9.95704762 C0.12447619,11.7069048 0.581714286,13.415 1.4507619,14.9206667 L1.4507619,14.9206667 L0.0417619048,20.065381 L5.30671429,18.6848571 C6.75728571,19.4759048 8.39057143,19.8928095 10.0526667,19.8934762 L10.0526667,19.8934762 L10.0569524,19.8934762 C15.5304286,19.8934762 19.9861905,15.4389524 19.9885244,9.96509524 L19.9885244,9.96509524 C19.9894286,7.312 18.9572381,4.81752381 17.0822381,2.94085714 L17.0822381,2.94085714 C15.2070476,1.06428571 12.7135238,0.0303333333 10.0569524,0.0291904762 L10.0569524,0.0291904762 C4.58242857,0.0291904762 0.127380952,4.48285714 0.125142857,9.95704762 L0.125142857,9.95704762 Z M3.26042857,14.6614762 L3.064,14.3493333 C2.23757143,13.0353333 1.80133333,11.5169048 1.80195172,9.95766667 L1.80195172,9.95766667 C1.8037619,5.40771429 5.50666667,1.70609524 10.06,1.70609524 L10.06,1.70609524 C12.265,1.70704762 14.3373333,2.56647619 15.896,4.12619048 L15.896,4.12619048 C17.4545714,5.68590476 18.3121905,7.75933333 18.3115718,9.96442857 L18.3115718,9.96442857 C18.3095714,14.5145238 14.606619,18.216619 10.0569524,18.216619 L10.0569524,18.216619 L10.0536667,18.216619 C8.57214286,18.2158571 7.11938095,17.8181429 5.85219048,17.0661905 L5.85219048,17.0661905 L5.55061905,16.8874286 L2.42628571,17.7065714 L3.26042857,14.6614762 Z" id="path-5"/><filter x="-7.5%" y="-7.5%" width="115.0%" height="115.0%" filterUnits="objectBoundingBox" id="filter-6"><feOffset dx="0" dy="0" in="SourceAlpha" result="shadowOffsetOuter1"/><feGaussianBlur stdDeviation="0.5" in="shadowOffsetOuter1" result="shadowBlurOuter1"/><feColorMatrix values="0 0 0 0 0   0 0 0 0 0   0 0 0 0 0  0 0 0 0.04 0" type="matrix" in="shadowBlurOuter1"/></filter><path d="M7.5746381,5.80664286 C7.38878095,5.39335714 7.19306667,5.38507143 7.01620952,5.37788095 C6.87159048,5.37164286 6.70597143,5.37206517 6.54068571,5.37206517 C6.37520952,5.37206517 6.10635238,5.43421429 5.87897143,5.68254762 C5.65144762,5.93083333 5.01030476,6.53116667 5.01030476,7.75207143 C5.01030476,8.97307143 5.8996381,10.152881 6.02359048,10.3185952 C6.14768571,10.4840714 7.74035238,13.0695952 10.2626857,14.0642619 C12.3589714,14.8909286 12.7855429,14.7265 13.2405429,14.685119 C13.6955429,14.6437857 14.7086857,14.0849762 14.9155429,13.5055 C15.1223524,12.926119 15.1223524,12.4294524 15.0603048,12.3256429 C14.9982571,12.2223095 14.8328286,12.1602143 14.5846381,12.036119 C14.3364476,11.9120238 13.1164476,11.3115952 12.8889714,11.228881 C12.6614476,11.1461667 12.496019,11.1047857 12.3305429,11.3532619 C12.1650667,11.6014048 11.689781,12.1602143 11.5449714,12.3256429 C11.4002095,12.4915476 11.2554476,12.5121667 11.0072571,12.388119 C10.7590667,12.2636429 9.95982857,12.001881 9.01168571,11.1565 C8.27397143,10.4987857 7.77592381,9.6865 7.6311619,9.43807143 C7.48635238,9.18983333 7.61559048,9.05545238 7.74011429,8.93169048 C7.85149524,8.82054762 7.98830476,8.64202381 8.11235238,8.49711905 C8.23620952,8.3522619 8.27759048,8.24883333 8.36030476,8.08335714 C8.44301905,7.91764286 8.40168571,7.7727381 8.3396381,7.64864286 C8.27759048,7.52454762 7.79530476,6.29730952 7.5746381,5.80664286" id="path-7"/><filter x="-69.4%" y="-53.5%" width="238.8%" height="249.7%" filterUnits="objectBoundingBox" id="filter-8"><feOffset dx="0" dy="2" in="SourceAlpha" result="shadowOffsetOuter1"/><feGaussianBlur stdDeviation="2" in="shadowOffsetOuter1" result="shadowBlurOuter1"/><feColorMatrix values="0 0 0 0 0   0 0 0 0 0   0 0 0 0 0  0 0 0 0.06 0" type="matrix" in="shadowBlurOuter1"/></filter></defs><g id="Symbols" stroke="none" stroke-width="1" fill="none" fill-rule="evenodd"><g id="_Icons-/-ico24-/-whatsapp-color"><g id="Icon" transform="translate(2.000000, 2.000000)"><g id="Fill-3"><use fill="black" fill-opacity="1" filter="url(#filter-2)" xmlns:xlink="http://www.w3.org/1999/xlink" xlink:href="#path-1"/><use fill="#FFFFFF" fill-rule="evenodd" xmlns:xlink="http://www.w3.org/1999/xlink" xlink:href="#path-1"/></g><path d="M0.467428571,9.96028571 C0.466904762,11.6492381 0.908238095,13.2984286 1.74742857,14.7519524 L1.74742857,14.7519524 L0.387190476,19.7186667 L5.46985714,18.3859524 C6.87014286,19.1490952 8.44680952,19.5519048 10.0513333,19.5524286 L10.0513333,19.5524286 L10.055619,19.5524286 C15.3395238,19.5524286 19.6408095,15.2525714 19.6430008,9.96780952 L19.6430008,9.96780952 C19.6440476,7.4067619 18.6476667,4.99871429 16.8373333,3.18709524 L16.8373333,3.18709524 C15.0273333,1.37547619 12.6200476,0.377285714 10.0551905,0.376095238 L10.0551905,0.376095238 C4.77061905,0.376095238 0.469619048,4.67557143 0.467428571,9.96028571" id="Fill-6" fill="url(#linearGradient-3)"/><g id="Fill-10"><use fill="black" fill-opacity="1" filter="url(#filter-6)" xmlns:xlink="http://www.w3.org/1999/xlink" xlink:href="#path-5"/><use fill="url(#linearGradient-4)" fill-rule="evenodd" xmlns:xlink="http://www.w3.org/1999/xlink" xlink:href="#path-5"/></g><g id="Fill-14"><use fill="black" fill-opacity="1" filter="url(#filter-8)" xmlns:xlink="http://www.w3.org/1999/xlink" xlink:href="#path-7"/><use fill="#FFFFFF" fill-rule="evenodd" xmlns:xlink="http://www.w3.org/1999/xlink" xlink:href="#path-7"/></g></g></g></g></svg>