<svg xmlns="http://www.w3.org/2000/svg" contain="paint" buffered-rendering="static" viewBox="0 0 512 512" class="small mr-4th icon-usd nessy-only" aria-hidden="true" focusable="false" role="presentation"><path d="M389 339c0 29-9 54-28 75s-44 34-74 39v50c0 3-1 5-3 6-1 2-4 3-6 3h-39c-2 0-4-1-6-3s-3-4-3-6v-50c-13-2-25-5-36-9-12-4-22-8-29-13-8-4-15-9-22-13-6-5-10-9-13-11l-5-5c-3-4-3-8 0-12l29-39c1-1 4-3 7-3 2 0 5 0 6 3h1c22 19 45 31 69 36 7 1 15 2 22 2 15 0 29-4 40-12 12-8 18-20 18-35 0-5-2-10-4-15-3-5-6-9-10-12s-9-7-17-11c-7-4-14-7-19-9s-12-5-22-9c-8-3-14-6-18-7-4-2-10-5-18-8-7-3-13-6-17-9-5-2-10-6-17-10-6-4-11-8-15-12s-8-9-12-14c-5-6-8-11-10-17-3-5-5-12-6-19-2-7-3-14-3-22 0-26 9-49 28-69s43-33 73-38V9c0-2 1-4 3-6s4-3 6-3h39c2 0 5 1 6 3 2 1 3 3 3 6v50c11 2 21 4 31 7 11 3 19 6 25 10 7 3 13 6 18 10 6 4 10 7 12 9 1 1 3 2 4 4 3 3 4 7 1 10l-23 42c-1 3-4 5-6 5-3 0-6 0-8-2l-4-4c-2-1-6-4-11-7-6-4-11-7-17-9-6-3-13-6-21-8-9-2-17-3-25-3-18 0-33 4-44 12-12 8-17 19-17 32 0 5 1 9 2 14 2 4 5 8 9 11 4 4 7 7 11 10 3 2 9 5 16 9 7 3 13 6 17 7 5 2 11 5 20 8 10 4 18 7 23 9 6 2 13 6 22 10 9 5 16 9 22 12 5 4 11 9 17 15 7 6 12 12 15 18 4 6 7 13 9 22 3 8 4 17 4 27z"/></svg>