<svg version="1.1" id="Layer_1" xmlns="http://www.w3.org/2000/svg" x="0" y="0" viewBox="0 0 200 200" xml:space="preserve"><style>.st1{fill:#f6945a}.st2{fill:#f4e9df}.st3{opacity:.63;fill:#cdb298;enable-background:new}.st4{fill:#a75d2a}.st6{fill:#a45c2e}.st8{opacity:.4;fill:#fffcea;enable-background:new}.st10{fill:#120000}.st12{fill:#482e1f}</style><circle cx="100" cy="100" r="100" fill="#008bff"/><path class="st1" d="M135.7 136.8L127 185H68l-7.6-48.2L38 80.7l120.2 2-22.5 54.1z"/><path class="st2" d="M74.7 184.5l1.6-47.7-13-54h69.5l-12.9 54 1.5 47.9-46.7-.2z"/><path class="st3" d="M75.2 173.4c.6-21.9 1-36.6 1-36.6l-13-54h6.6v4.8c0 15.3 12.4 12.4 27.6 12.4h1.9v77.9l-24.1-4.5z"/><path class="st2" d="M107.9 115.7L87 136.5h22.3"/><path class="st2" d="M107.9 129.2L87 150h22.3"/><path class="st4" d="M58.3 177.2l2.1-40.4-22.4-56 25.3 2 13 54-1.3 41-16.7-.6z"/><path d="M148.6 82.7c-6.3 22-26.5 38.1-50.5 38.1-16.9 0-31.8-.4-44.7-1.1L38 80.7l110.6 2z" opacity=".3" fill="#120000"/><path class="st1" d="M188.7 53.9c-.5 1.7-1.2 3.2-2.1 4.5l-3.9 5.1c-3.1 4.1-8.7 4.6-12.5 1.2l-16.6-15.1c-3.8-3.5-3.1-8 1.6-10l16.4-7.2c.5-.2 1-.4 1.5-.5 1 1 1.9 2 2.8 3.1 4.9 5.6 9.3 12 12.8 18.9z"/><path class="st6" d="M175.8 34.8l-17.2 19.3-5.1-4.6c-3.8-3.5-3.1-8 1.6-10l16.4-7.2c.5-.2 1-.4 1.5-.5 1 1 2 2 2.8 3z"/><path class="st1" d="M172.5 60.6s-3.2-4.7-7.1-10.4l-1-1.4c-3.9-5.7-12.6-12-19.2-13.9l-33.1-9.5c-6.7-1.9-17.6-1.9-24.3-.1l-35.4 9.9c-6.7 1.9-14.9 8.3-18.3 14.4l-.1.4c-3.4 6-6.2 11-6.2 11s2.3 5.2 5.2 11.5l2.2 4.9c2.9 6.3 10.5 13.6 16.9 16.1l36.4 14.4c6.4 2.6 16.9 2.4 23.3-.2l33.9-14.3c6.4-2.7 14.3-9.9 17.6-16l3.1-5.7c3.4-6.1 6.1-11.1 6.1-11.1z"/><path d="M123.9 73.4c2 2 5.8 3.2 8.5 2.8l21-3.2c2.7-.4 4.8-3 4.6-5.8l-1.2-18.6c-.2-2.8-2.6-5.5-5.3-6l-25.1-5.2c-2.7-.6-5.8 1.1-6.8 3.7l-6.2 15.3c-1 2.6-.3 6.3 1.6 8.2l8.9 8.8z" fill="#a25d2a"/><path class="st1" d="M124.4 74.2l3.8 2.8 30.8-4.8-1.2-2.8c-3.9-3.2-9-5.2-14.5-5.2-7.8 0-14.7 4-18.9 10z"/><path class="st8" d="M105.4 81.5l12.1 11.7c2.8 2.7 3.6 2.1 1.8-1.3L105.4 65c-1.8-3.4-1.7-9 .1-12.4l11.3-20.9c.9-1.6 2.4-2.9 4.2-3.7l-8.8-2.5c-3.2-.9-7.5-1.4-11.8-1.4v45.5c0 3.8 2.3 9.2 5 11.9z"/><path class="st6" d="M46.4 49.6l-16.6 15c-3.8 3.4-9.5 2.9-12.5-1.2l-3.9-5.1c-1-1.3-1.7-2.8-2.1-4.5 3.6-6.9 7.9-13.2 12.9-19 .9-1 1.8-2.1 2.8-3.1.5.1 1 .3 1.5.5l16.4 7.2c4.6 2.2 5.3 6.7 1.5 10.2z"/><path class="st1" d="M46.4 49.6l-5.1 4.6-17.1-19.4c.9-1 1.8-2.1 2.8-3.1.5.1 1 .3 1.5.5l16.4 7.2c4.6 2.2 5.3 6.7 1.5 10.2z"/><path class="st4" d="M89.4 80.1l2.2-12.2c1-5.6.1-14.5-1.9-19.8l-8-21-29.2 8.2c-6.7 1.9-14.9 8.3-18.3 14.4l-.2.3c-3.4 6-6.2 11-6.2 11s2.3 5.2 5.2 11.5l2.2 4.9c2.9 6.3 10.5 13.6 16.9 16.1l5.7 2.3 19.6-3.6c5.6-1.1 11-6.5 12-12.1z"/><path class="st8" d="M164.4 75.8c-4.1-4-9.8-6.5-16-6.5-1.7 0-3.4.2-5 .6 7.2 1.6 13.2 6.7 16 13.4 1.7-1.9 3.1-3.9 4.1-5.7l.9-1.8z"/><path class="st2" d="M52.2 93.5l36.4 14.4c6.4 2.6 16.9 2.4 23.3-.2l33.9-14.3c2.9-1.2 6.2-3.4 9.2-6-6.5 1.8-15.7 1.1-21.4-1.9l-22.4-11.7c-6.1-3.2-16.2-3.3-22.4-.2L64.3 86c-6.2 3.1-15.2 3.3-20 .4-1.9-1.1-3.6-2.1-5-3 3.5 4.4 8.5 8.4 12.9 10.1z"/><path class="st3" d="M103.3 105.1l21.9-15.8-23.6 6.5.2-14.1.9-10.2c-4.9-.4-10 .3-13.8 2.1L64.3 86c-6.2 3.1-15.2 3.3-20 .4-1.9-1.1-3.6-2.1-5-3 3.6 4.3 8.6 8.3 13 10l36.4 14.4c6.4 2.6 16.9 2.4 23.3-.2l19.6-8.2c-14.1 3.4-28.1 6.2-28.1 6.2l-.2-.5z"/><path d="M112.8 79.8c-2.2 4.4-7.9 8-12.8 8-4.8 0-10.5-3.6-12.6-8l-1.7-3.5c-2.1-4.4.1-8.6 4.9-9.4l.8-.1c4.8-.7 12.7-.8 17.6 0l.8.1c4.8.7 7 4.9 4.8 9.3l-1.8 3.6z" fill="#3b2314"/><path class="st10" d="M94.9 76.6c0 2.8-2.3 5.1-5.1 5.1-.5 0-.9-.1-1.4-.2-.4-.6-.8-1.1-1-1.7l-1.7-3.5c-.3-.6-.5-1.2-.6-1.7.8-1.8 2.6-3.1 4.7-3.1 2.8 0 5.1 2.2 5.1 5.1zm20.5-3.5c-.1 1-.3 2-.8 3l-1.8 3.7c-.3.7-.7 1.3-1.2 1.9-2.8-.1-5-2.3-5-5.1s2.3-5.1 5.1-5.1c1.5 0 2.8.6 3.7 1.6z"/><path d="M71.6 74c-2.2 1.7-6.3 2.6-9 2.1l-15.8-2.9c-2.7-.5-4.9-3.2-4.7-6l.8-16.5c.1-2.8 2.4-5.7 5.1-6.4l23.1-6.6c2.7-.8 5.9.6 7.2 3.1l8.3 15.7c1.3 2.4.6 5.8-1.7 7.5L71.6 74z" opacity=".4" fill="#120000"/><path class="st4" d="M52.7 64.2c-4.3 0-8.3 1.2-11.7 3.2l-2 4.8L67.6 77l3.9-2.9c-4.1-6-11-9.9-18.8-9.9z"/><circle class="st10" cx="125.9" cy="60.3" r="5.1"/><path class="st12" d="M122.4 60.2c0-2 1.6-3.6 3.6-3.6s3.6 1.6 3.6 3.6h-7.2z"/><circle class="st10" cx="74.4" cy="60.3" r="5.1"/><path class="st12" d="M70.9 60.2c0-2 1.6-3.6 3.6-3.6s3.6 1.6 3.6 3.6h-7.2z"/><path d="M31.4 41.4v5s5.5 1.9 7.7 11.1C41.2 66.7 42 77 56.9 77s17.6.4 22.1-1.6c4.4-2 7-7.2 8.2-11.8.5-1.9.4-2.8 1.3-7.7.4-6.1 5.5-10.9 11.7-10.9s11.3 4.8 11.8 10.9c1 5.9 1 5.9 1.5 7.7 1.2 4.6 3.8 9.7 8.2 11.8 4.4 2 6.9 1.6 21.8 1.6s15.6-10.3 17.8-19.5c2.1-9.2 7.7-11.1 7.7-11.1v-5H31.4zm52.9 13.5c-2 12.8-4.2 16.8-9 17.8-4.1.9-16.9 1.5-22-.2-5.1-1.8-8.7-11.3-8.9-19.3s8.3-7.6 8.3-7.6h14.4c10.3 0 18.3 1.9 17.2 9.3zM147 72.5c-5.1 1.8-17.6 1.1-21.7.2-4.8-1-7.3-5-9.2-17.8-1.1-7.3 6.9-9.2 17.1-9.2h14.4s8.4-.4 8.3 7.6c-.2 7.9-3.9 17.4-8.9 19.2z" fill="#27d3bc"/><path d="M138.8 192.2c-11.9 5-25.1 7.8-38.8 7.8-15.2 0-29.7-3.4-42.6-9.5l3-53.5 39.1 25.6 36.2-25.6 3.1 55.2z" fill="#5746b2"/><path d="M99.5 162.5V200c-15.1-.1-29.3-3.5-42.1-9.5l3-53.5 39.1 25.5z" fill="#32268f"/><path d="M135.7 137l-36 25.4 41.8-10.3-5.8-15.1zm-83.3 12.9l47 12.6-39-25.5-8 12.9z" fill="#ffc803"/></svg>