<svg xmlns="http://www.w3.org/2000/svg" contain="paint" buffered-rendering="static" viewBox="0 0 512 512" class="small mx-auto icon-mail nessy-only" aria-hidden="true" focusable="false" role="presentation"><path d="M475 430V210c-6 7-12 13-19 19-51 39-92 72-122 97-10 8-18 14-24 19-6 4-14 9-24 14-11 4-21 7-30 7s-19-3-30-7c-10-5-18-10-24-14-6-5-14-11-24-19-30-25-71-58-122-97-7-6-13-12-19-19v220c0 2 0 4 2 6s4 3 7 3h420c3 0 5-1 7-3s2-4 2-6zm0-301v-10l-1-4-1-2-3-3H46c-3 0-5 1-7 2-2 2-2 4-2 7 0 32 14 59 42 81 36 29 75 59 114 91 1 1 5 3 10 8 6 5 10 8 13 11 4 2 8 5 13 9 5 3 10 6 14 8 5 1 9 2 13 2s8-1 13-2c4-2 9-5 14-8 5-4 9-7 13-9 3-3 7-6 13-11 5-5 9-7 10-8 39-32 78-62 114-91 11-8 20-19 29-33s13-26 13-38zm37-10v311c0 12-4 23-13 32s-20 13-33 13H46c-13 0-24-4-33-13S0 442 0 430V119c0-13 4-23 13-32s20-14 33-14h420c13 0 24 5 33 14s13 19 13 32z"/></svg>