<?xml version="1.0" encoding="utf-8"?>
<!-- Generator: Adobe Illustrator 27.5.0, SVG Export Plug-In . SVG Version: 6.00 Build 0)  -->
<svg version="1.1" id="Layer_1" xmlns="http://www.w3.org/2000/svg" xmlns:xlink="http://www.w3.org/1999/xlink" x="0px" y="0px"
	 viewBox="0 0 200 200" style="enable-background:new 0 0 200 200;" xml:space="preserve">
<style type="text/css">
	.st0{fill:#008BFF;}
	.st1{fill:#F6945A;}
	.st2{fill:#F4E9DF;}
	.st3{opacity:0.63;fill:#CDB298;enable-background:new    ;}
	.st4{fill:#A75D2A;}
	.st5{opacity:0.3;fill:#120000;enable-background:new    ;}
	.st6{fill:#A45C2E;}
	.st7{fill:#A25D2A;}
	.st8{opacity:0.4;fill:#FFFCEA;enable-background:new    ;}
	.st9{fill:#3B2314;}
	.st10{fill:#120000;}
	.st11{opacity:0.4;fill:#120000;enable-background:new    ;}
	.st12{fill:#482E1F;}
	.st13{fill:#27D3BC;}
	.st14{fill:#5746B2;}
	.st15{fill:#32268F;}
	.st16{fill:#FFC803;}
</style>
<circle class="st0" cx="100" cy="100" r="100"/>
<path class="st1" d="M135.7,136.8L127,185H68l-7.6-48.2L38,80.7l120.2,2L135.7,136.8z"/>
<path class="st2" d="M74.7,184.5l1.6-47.7l-13-54h69.5l-12.9,54l1.5,47.9L74.7,184.5z"/>
<path class="st3" d="M75.2,173.4c0.6-21.9,1-36.6,1-36.6l-13-54h6.6v4.8c0,15.3,12.4,12.4,27.6,12.4h1.9v77.9L75.2,173.4z"/>
<path class="st2" d="M107.9,115.7L87,136.5h22.3"/>
<path class="st2" d="M107.9,129.2L87,150h22.3"/>
<path class="st4" d="M58.3,177.2l2.1-40.4L38,80.8l25.3,2l13,54l-1.3,41L58.3,177.2z"/>
<path class="st5" d="M148.6,82.7c-6.3,22-26.5,38.1-50.5,38.1c-16.9,0-31.8-0.4-44.7-1.1L38,80.7L148.6,82.7z"/>
<path class="st1" d="M188.7,53.9c-0.5,1.7-1.2,3.2-2.1,4.5l-3.9,5.1c-3.1,4.1-8.7,4.6-12.5,1.2l-16.6-15.1c-3.8-3.5-3.1-8,1.6-10
	l16.4-7.2c0.5-0.2,1-0.4,1.5-0.5c1,1,1.9,2,2.8,3.1C180.8,40.6,185.2,47,188.7,53.9z"/>
<path class="st6" d="M175.8,34.8l-17.2,19.3l-5.1-4.6c-3.8-3.5-3.1-8,1.6-10l16.4-7.2c0.5-0.2,1-0.4,1.5-0.5
	C174,32.8,175,33.8,175.8,34.8z"/>
<path class="st1" d="M172.5,60.6c0,0-3.2-4.7-7.1-10.4l-1-1.4c-3.9-5.7-12.6-12-19.2-13.9l-33.1-9.5c-6.7-1.9-17.6-1.9-24.3-0.1
	l-35.4,9.9c-6.7,1.9-14.9,8.3-18.3,14.4L34,50c-3.4,6-6.2,11-6.2,11s2.3,5.2,5.2,11.5l2.2,4.9c2.9,6.3,10.5,13.6,16.9,16.1
	l36.4,14.4c6.4,2.6,16.9,2.4,23.3-0.2l33.9-14.3c6.4-2.7,14.3-9.9,17.6-16l3.1-5.7C169.8,65.6,172.5,60.6,172.5,60.6L172.5,60.6z"/>
<path class="st7" d="M123.9,73.4c2,2,5.8,3.2,8.5,2.8l21-3.2c2.7-0.4,4.8-3,4.6-5.8l-1.2-18.6c-0.2-2.8-2.6-5.5-5.3-6l-25.1-5.2
	c-2.7-0.6-5.8,1.1-6.8,3.7l-6.2,15.3c-1,2.6-0.3,6.3,1.6,8.2C115,64.6,123.9,73.4,123.9,73.4z"/>
<path class="st1" d="M124.4,74.2l3.8,2.8l30.8-4.8l-1.2-2.8c-3.9-3.2-9-5.2-14.5-5.2C135.5,64.2,128.6,68.2,124.4,74.2z"/>
<path class="st8" d="M105.4,81.5l12.1,11.7c2.8,2.7,3.6,2.1,1.8-1.3L105.4,65c-1.8-3.4-1.7-9,0.1-12.4l11.3-20.9
	c0.9-1.6,2.4-2.9,4.2-3.7l-8.8-2.5c-3.2-0.9-7.5-1.4-11.8-1.4v45.5C100.4,73.4,102.7,78.8,105.4,81.5z"/>
<path class="st6" d="M46.4,49.6l-16.6,15c-3.8,3.4-9.5,2.9-12.5-1.2l-3.9-5.1c-1-1.3-1.7-2.8-2.1-4.5c3.6-6.9,7.9-13.2,12.9-19
	c0.9-1,1.8-2.1,2.8-3.1c0.5,0.1,1,0.3,1.5,0.5l16.4,7.2C49.5,41.6,50.2,46.1,46.4,49.6z"/>
<path class="st1" d="M46.4,49.6l-5.1,4.6L24.2,34.8c0.9-1,1.8-2.1,2.8-3.1c0.5,0.1,1,0.3,1.5,0.5l16.4,7.2
	C49.5,41.6,50.2,46.1,46.4,49.6z"/>
<path class="st4" d="M89.4,80.1l2.2-12.2c1-5.6,0.1-14.5-1.9-19.8l-8-21l-29.2,8.2c-6.7,1.9-14.9,8.3-18.3,14.4L34,50
	c-3.4,6-6.2,11-6.2,11s2.3,5.2,5.2,11.5l2.2,4.9c2.9,6.3,10.5,13.6,16.9,16.1l5.7,2.3l19.6-3.6C83,91.1,88.4,85.7,89.4,80.1z"/>
<path class="st8" d="M164.4,75.8c-4.1-4-9.8-6.5-16-6.5c-1.7,0-3.4,0.2-5,0.6c7.2,1.6,13.2,6.7,16,13.4c1.7-1.9,3.1-3.9,4.1-5.7
	L164.4,75.8z"/>
<path class="st2" d="M52.2,93.5l36.4,14.4c6.4,2.6,16.9,2.4,23.3-0.2l33.9-14.3c2.9-1.2,6.2-3.4,9.2-6c-6.5,1.8-15.7,1.1-21.4-1.9
	l-22.4-11.7c-6.1-3.2-16.2-3.3-22.4-0.2L64.3,86c-6.2,3.1-15.2,3.3-20,0.4c-1.9-1.1-3.6-2.1-5-3C42.8,87.8,47.8,91.8,52.2,93.5z"/>
<path class="st3" d="M103.3,105.1l21.9-15.8l-23.6,6.5l0.2-14.1l0.9-10.2c-4.9-0.4-10,0.3-13.8,2.1L64.3,86
	c-6.2,3.1-15.2,3.3-20,0.4c-1.9-1.1-3.6-2.1-5-3c3.6,4.3,8.6,8.3,13,10l36.4,14.4c6.4,2.6,16.9,2.4,23.3-0.2l19.6-8.2
	c-14.1,3.4-28.1,6.2-28.1,6.2L103.3,105.1z"/>
<path class="st9" d="M112.8,79.8c-2.2,4.4-7.9,8-12.8,8c-4.8,0-10.5-3.6-12.6-8l-1.7-3.5c-2.1-4.4,0.1-8.6,4.9-9.4l0.8-0.1
	c4.8-0.7,12.7-0.8,17.6,0l0.8,0.1c4.8,0.7,7,4.9,4.8,9.3C114.6,76.2,112.8,79.8,112.8,79.8z"/>
<path class="st10" d="M94.9,76.6c0,2.8-2.3,5.1-5.1,5.1c-0.5,0-0.9-0.1-1.4-0.2c-0.4-0.6-0.8-1.1-1-1.7l-1.7-3.5
	c-0.3-0.6-0.5-1.2-0.6-1.7c0.8-1.8,2.6-3.1,4.7-3.1C92.6,71.5,94.9,73.7,94.9,76.6z M115.4,73.1c-0.1,1-0.3,2-0.8,3l-1.8,3.7
	c-0.3,0.7-0.7,1.3-1.2,1.9c-2.8-0.1-5-2.3-5-5.1s2.3-5.1,5.1-5.1C113.2,71.5,114.5,72.1,115.4,73.1z"/>
<path class="st11" d="M71.6,74c-2.2,1.7-6.3,2.6-9,2.1l-15.8-2.9c-2.7-0.5-4.9-3.2-4.7-6l0.8-16.5c0.1-2.8,2.4-5.7,5.1-6.4l23.1-6.6
	c2.7-0.8,5.9,0.6,7.2,3.1l8.3,15.7c1.3,2.4,0.6,5.8-1.7,7.5L71.6,74z"/>
<path class="st4" d="M52.7,64.2c-4.3,0-8.3,1.2-11.7,3.2l-2,4.8L67.6,77l3.9-2.9C67.4,68.1,60.5,64.2,52.7,64.2z"/>
<circle class="st10" cx="125.9" cy="60.3" r="5.1"/>
<path class="st12" d="M122.4,60.2c0-2,1.6-3.6,3.6-3.6s3.6,1.6,3.6,3.6H122.4z"/>
<circle class="st10" cx="74.4" cy="60.3" r="5.1"/>
<path class="st12" d="M70.9,60.2c0-2,1.6-3.6,3.6-3.6s3.6,1.6,3.6,3.6H70.9z"/>
<path class="st13" d="M31.4,41.4v5c0,0,5.5,1.9,7.7,11.1C41.2,66.7,42,77,56.9,77s17.6,0.4,22.1-1.6c4.4-2,7-7.2,8.2-11.8
	c0.5-1.9,0.4-2.8,1.3-7.7C88.9,49.8,94,45,100.2,45s11.3,4.8,11.8,10.9c1,5.9,1,5.9,1.5,7.7c1.2,4.6,3.8,9.7,8.2,11.8
	c4.4,2,6.9,1.6,21.8,1.6s15.6-10.3,17.8-19.5c2.1-9.2,7.7-11.1,7.7-11.1v-5H31.4z M84.3,54.9c-2,12.8-4.2,16.8-9,17.8
	c-4.1,0.9-16.9,1.5-22-0.2c-5.1-1.8-8.7-11.3-8.9-19.3s8.3-7.6,8.3-7.6h14.4C77.4,45.6,85.4,47.5,84.3,54.9z M147,72.5
	c-5.1,1.8-17.6,1.1-21.7,0.2c-4.8-1-7.3-5-9.2-17.8c-1.1-7.3,6.9-9.2,17.1-9.2h14.4c0,0,8.4-0.4,8.3,7.6
	C155.7,61.2,152,70.7,147,72.5L147,72.5z"/>
<path class="st14" d="M138.8,192.2c-11.9,5-25.1,7.8-38.8,7.8c-15.2,0-29.7-3.4-42.6-9.5l3-53.5l39.1,25.6l36.2-25.6L138.8,192.2z"
	/>
<path class="st15" d="M99.5,162.5V200c-15.1-0.1-29.3-3.5-42.1-9.5l3-53.5L99.5,162.5z"/>
<path class="st16" d="M135.7,137l-36,25.4l41.8-10.3L135.7,137z M52.4,149.9l47,12.6l-39-25.5L52.4,149.9z"/>
</svg>
